<svg width="14" height="8" viewBox="0 0 14 8" fill="none" xmlns="http://www.w3.org/2000/svg">
<path d="M0.853516 3.68756C0.577373 3.68756 0.353516 3.91142 0.353516 4.18756C0.353516 4.4637 0.577373 4.68756 0.853516 4.68756L0.853516 3.68756ZM13.289 4.54112C13.4842 4.34585 13.4842 4.02927 13.289 3.83401L10.107 0.652028C9.91172 0.456766 9.59514 0.456766 9.39987 0.652028C9.20461 0.84729 9.20461 1.16387 9.39987 1.35913L12.2283 4.18756L9.39987 7.01599C9.20461 7.21125 9.20461 7.52783 9.39987 7.7231C9.59513 7.91836 9.91172 7.91836 10.107 7.7231L13.289 4.54112ZM0.853516 4.68756L12.9354 4.68756L12.9354 3.68756L0.853516 3.68756L0.853516 4.68756Z" fill="#716A85"/>
</svg>
