<svg width="14" height="9" viewBox="0 0 14 9" fill="none" xmlns="http://www.w3.org/2000/svg">
<path d="M0.853516 3.97855C0.577373 3.97855 0.353516 4.2024 0.353516 4.47855C0.353516 4.75469 0.577373 4.97855 0.853516 4.97855L0.853516 3.97855ZM13.289 4.8321C13.4842 4.63684 13.4842 4.32026 13.289 4.12499L10.107 0.943013C9.91172 0.747751 9.59514 0.747751 9.39987 0.943013C9.20461 1.13828 9.20461 1.45486 9.39987 1.65012L12.2283 4.47855L9.39987 7.30697C9.20461 7.50224 9.20461 7.81882 9.39987 8.01408C9.59513 8.20934 9.91172 8.20934 10.107 8.01408L13.289 4.8321ZM0.853516 4.97855L12.9354 4.97855L12.9354 3.97855L0.853516 3.97855L0.853516 4.97855Z" fill="white"/>
</svg>
